<svg version="1.1" id="Layer_1" xmlns="http://www.w3.org/2000/svg" xmlns:xlink="http://www.w3.org/1999/xlink" x="0px" y="0px"
	 width="100%" viewBox="0 0 420 420" enable-background="new 0 0 420 420" xml:space="preserve">
<path fill="#F0F0F0" opacity="1.000000" stroke="none" 
	d="
M280.000000,421.000000 
	C186.666672,421.000000 93.833359,421.000000 1.000025,421.000000 
	C1.000017,281.000031 1.000017,141.000061 1.000008,1.000062 
	C140.999954,1.000042 280.999908,1.000042 420.999908,1.000021 
	C420.999939,140.999939 420.999939,280.999878 420.999969,420.999908 
	C374.166656,421.000000 327.333344,421.000000 280.000000,421.000000 
M117.520203,317.000000 
	C136.924744,317.000000 156.329285,317.000000 176.234055,317.000000 
	C176.234055,340.782135 176.234055,363.692902 176.234055,386.690430 
	C199.987839,386.690430 223.227051,386.690430 247.154449,386.690430 
	C247.154449,363.358734 247.154449,340.326324 247.154449,316.796844 
	C270.750763,316.796844 293.661499,316.796844 317.075104,316.796844 
	C317.075104,293.379028 317.075104,270.468536 317.075104,246.876221 
	C340.609955,246.876221 363.642334,246.876221 386.657227,246.876221 
	C386.657227,222.944931 386.657227,199.705368 386.657227,175.777176 
	C363.293365,175.777176 340.263123,175.777176 316.742157,175.777176 
	C316.742157,128.852203 316.742157,82.617393 316.742157,36.302750 
	C246.338242,36.302750 176.443420,36.302750 105.867355,36.302750 
	C105.867355,82.956001 105.867355,129.311890 105.867355,176.173126 
	C82.279694,176.173126 59.369064,176.173126 36.457863,176.173126 
	C36.457863,200.044617 36.457863,223.399872 36.457863,247.266464 
	C59.821514,247.266464 82.731041,247.266464 106.142181,247.266464 
	C106.142181,270.688995 106.142181,293.599457 106.142181,317.000000 
	C109.941719,317.000000 113.234901,317.000000 117.520203,317.000000 
z"/>
<path fill="#D662C3" opacity="1.000000" stroke="none" 
	d="
M117.024147,317.000000 
	C113.234901,317.000000 109.941719,317.000000 106.142181,317.000000 
	C106.142181,293.599457 106.142181,270.688995 106.142181,247.266464 
	C82.731041,247.266464 59.821514,247.266464 36.457863,247.266464 
	C36.457863,223.399872 36.457863,200.044617 36.457863,176.173126 
	C59.369064,176.173126 82.279694,176.173126 105.867355,176.173126 
	C105.867355,129.311890 105.867355,82.956001 105.867355,36.302750 
	C176.443420,36.302750 246.338242,36.302750 316.742157,36.302750 
	C316.742157,82.617393 316.742157,128.852203 316.742157,175.777176 
	C340.263123,175.777176 363.293365,175.777176 386.657227,175.777176 
	C386.657227,199.705368 386.657227,222.944931 386.657227,246.876221 
	C363.642334,246.876221 340.609955,246.876221 317.075104,246.876221 
	C317.075104,270.468536 317.075104,293.379028 317.075104,316.796844 
	C293.661499,316.796844 270.750763,316.796844 247.154449,316.796844 
	C247.154449,340.326324 247.154449,363.358734 247.154449,386.690430 
	C223.227051,386.690430 199.987839,386.690430 176.234055,386.690430 
	C176.234055,363.692902 176.234055,340.782135 176.234055,317.000000 
	C156.329285,317.000000 136.924744,317.000000 117.024147,317.000000 
M171.325745,177.000198 
	C150.069702,177.000198 128.813660,177.000198 107.388306,177.000198 
	C107.388306,200.270401 107.388306,222.947357 107.388306,245.695770 
	C130.337189,245.695770 152.896469,245.695770 175.329620,245.695770 
	C175.601440,245.107574 175.852280,244.817627 175.853073,244.527008 
	C175.912460,223.055328 175.914047,201.583405 176.037857,180.112152 
	C176.054718,177.187515 174.532379,176.824890 171.325745,177.000198 
M247.000000,188.520203 
	C247.000000,207.577820 247.000000,226.635437 247.000000,245.669891 
	C270.394379,245.669891 292.951599,245.669891 315.581055,245.669891 
	C315.581055,222.662399 315.581055,199.987503 315.581055,177.331268 
	C292.603363,177.331268 270.046112,177.331268 247.000000,177.331268 
	C247.000000,180.946533 247.000000,184.237320 247.000000,188.520203 
M177.000000,278.500000 
	C177.000000,290.900757 177.000000,303.301514 177.000000,315.668762 
	C200.397522,315.668762 222.954315,315.668762 245.580627,315.668762 
	C245.580627,292.660614 245.580627,269.986206 245.580627,247.330978 
	C222.602982,247.330978 200.046188,247.330978 177.000000,247.330978 
	C177.000000,257.603546 177.000000,267.551788 177.000000,278.500000 
z"/>
<path fill="#F0F0F0" opacity="1.000000" stroke="none" 
	d="
M171.801941,177.000793 
	C174.532379,176.824890 176.054718,177.187515 176.037857,180.112152 
	C175.914047,201.583405 175.912460,223.055328 175.853073,244.527008 
	C175.852280,244.817627 175.601440,245.107574 175.329620,245.695770 
	C152.896469,245.695770 130.337189,245.695770 107.388306,245.695770 
	C107.388306,222.947357 107.388306,200.270401 107.388306,177.000198 
	C128.813660,177.000198 150.069702,177.000198 171.801941,177.000793 
z"/>
<path fill="#F0F0F0" opacity="1.000000" stroke="none" 
	d="
M247.000000,188.024139 
	C247.000000,184.237320 247.000000,180.946533 247.000000,177.331268 
	C270.046112,177.331268 292.603363,177.331268 315.581055,177.331268 
	C315.581055,199.987503 315.581055,222.662399 315.581055,245.669891 
	C292.951599,245.669891 270.394379,245.669891 247.000000,245.669891 
	C247.000000,226.635437 247.000000,207.577820 247.000000,188.024139 
z"/>
<path fill="#F0F0F0" opacity="1.000000" stroke="none" 
	d="
M177.000000,278.000000 
	C177.000000,267.551788 177.000000,257.603546 177.000000,247.330978 
	C200.046188,247.330978 222.602982,247.330978 245.580627,247.330978 
	C245.580627,269.986206 245.580627,292.660614 245.580627,315.668762 
	C222.954315,315.668762 200.397522,315.668762 177.000000,315.668762 
	C177.000000,303.301514 177.000000,290.900757 177.000000,278.000000 
z"/>
</svg>