<?xml version="1.0" standalone="no"?>
<!DOCTYPE svg PUBLIC "-//W3C//DTD SVG 20010904//EN"
 "http://www.w3.org/TR/2001/REC-SVG-20010904/DTD/svg10.dtd">
<svg version="1.0" xmlns="http://www.w3.org/2000/svg"
 width="236.000000pt" height="214.000000pt" viewBox="0 0 236.000000 214.000000"
 preserveAspectRatio="xMidYMid meet">

<g transform="translate(0.000000,214.000000) scale(0.100000,-0.100000)"
fill="#000000" stroke="none">
<path d="M1090 2014 c-19 -3 -59 -9 -87 -15 l-53 -10 0 -60 c0 -37 -4 -59 -11
-59 -7 0 -50 -16 -96 -36 l-85 -36 -39 38 -39 38 -55 -39 c-66 -45 -202 -186
-230 -238 l-19 -37 37 -38 37 -38 -35 -79 c-19 -44 -35 -86 -35 -92 0 -9 -19
-13 -59 -13 l-60 0 -12 -57 c-14 -64 -15 -287 -2 -343 9 -34 10 -35 68 -40 50
-4 60 -8 63 -25 2 -11 18 -53 34 -93 l31 -74 -37 -37 c-20 -20 -36 -41 -36
-45 0 -37 206 -260 273 -295 26 -14 29 -13 65 22 l38 37 75 -34 c41 -19 87
-38 102 -41 26 -7 27 -10 27 -65 l0 -59 58 -12 c31 -7 109 -13 172 -13 63 0
141 6 173 13 l57 12 0 59 c0 55 1 58 27 65 15 3 61 22 102 41 l75 34 38 -37
c36 -35 39 -36 65 -22 67 35 273 258 273 295 0 4 -16 25 -36 45 l-37 37 31 74
c16 40 32 82 34 93 3 17 13 21 63 25 58 5 59 6 68 40 13 56 12 279 -2 343
l-12 57 -60 0 c-40 0 -59 4 -59 13 0 6 -16 48 -35 92 l-35 79 40 41 39 40 -48
65 c-55 74 -156 173 -219 215 l-43 28 -39 -38 -38 -37 -85 36 c-46 20 -89 36
-96 36 -7 0 -11 21 -11 59 l0 59 -49 11 c-58 12 -220 21 -271 15z m250 -50
c27 -6 29 -9 32 -62 l3 -56 60 -22 c33 -11 84 -33 114 -48 l54 -28 38 38 c20
20 44 34 51 32 31 -12 134 -106 188 -172 l59 -71 -40 -41 -39 -40 39 -85 c21
-46 42 -99 46 -116 7 -33 7 -33 65 -33 51 0 58 -2 64 -22 11 -44 17 -213 9
-273 l-8 -60 -57 -3 -57 -3 -21 -66 c-12 -37 -33 -89 -46 -116 l-26 -50 42
-42 41 -42 -60 -76 c-53 -66 -171 -177 -189 -177 -3 0 -23 17 -44 37 l-37 36
-53 -28 c-29 -16 -84 -41 -123 -55 l-70 -26 -3 -56 c-3 -64 0 -62 -119 -74
l-73 -7 0 112 0 111 154 0 154 0 30 53 c17 30 48 65 72 82 117 81 234 262 265
410 64 307 -87 621 -365 759 -52 25 -124 52 -160 60 l-65 13 -10 59 c-7 38
-21 75 -42 106 -18 26 -33 50 -33 54 0 7 103 -1 160 -12z m-141 -87 c11 -20
53 -627 44 -627 -2 0 -17 15 -33 33 l-30 32 -34 -40 -34 -39 4 59 c2 33 11
174 19 313 14 231 23 292 46 292 3 0 11 -10 18 -23z m-102 -269 c-4 -62 -10
-182 -13 -265 -4 -84 -9 -153 -12 -153 -2 0 -17 11 -34 25 -16 13 -52 31 -80
40 -46 13 -88 19 -88 13 0 -2 7 -21 15 -43 8 -22 14 -51 15 -64 0 -23 -1 -23
-19 -7 -24 22 -113 56 -146 56 l-24 0 27 -57 c25 -55 26 -65 24 -196 -3 -159
5 -197 49 -251 30 -36 153 -106 186 -106 41 0 -39 -69 -104 -91 -33 -10 -38
-9 -90 27 -85 58 -159 147 -208 249 -52 107 -65 166 -65 285 0 120 13 178 67
289 80 168 239 297 423 345 89 24 84 30 77 -96z m278 85 c212 -66 391 -256
441 -469 20 -88 20 -220 0 -308 -34 -142 -140 -298 -259 -380 -52 -36 -57 -37
-90 -27 -65 22 -145 91 -104 91 30 0 155 70 184 103 45 51 54 95 51 254 -2
131 -1 141 24 196 l27 57 -24 0 c-33 0 -122 -34 -146 -56 -18 -16 -19 -16 -19
7 1 13 7 42 15 64 8 22 15 41 15 43 0 6 -42 0 -88 -13 -28 -9 -64 -27 -80 -40
-17 -14 -32 -25 -34 -25 -3 0 -8 71 -12 158 -3 86 -9 206 -13 266 l-6 108 34
-7 c19 -3 57 -13 84 -22z m-140 -498 c65 -85 122 -207 135 -287 11 -74 3 -134
-29 -196 -20 -40 -142 -162 -161 -162 -19 0 -141 122 -161 163 -66 128 -29
297 103 476 29 39 56 70 60 68 4 -1 28 -29 53 -62z m-252 19 c18 -9 41 -25 53
-36 l21 -19 -38 -73 c-68 -129 -84 -257 -44 -352 19 -47 5 -43 -33 9 -51 72
-58 119 -33 241 23 115 26 181 11 220 -8 23 -7 26 11 26 11 0 34 -7 52 -16z
m457 -10 c-15 -39 -12 -95 11 -218 20 -107 21 -116 5 -167 -9 -31 -31 -71 -52
-94 -20 -22 -33 -31 -29 -20 5 11 15 47 23 79 22 83 6 173 -51 289 l-43 87 20
19 c30 27 77 50 103 51 20 0 21 -3 13 -26z m-594 -68 c55 -38 54 -31 30 -167
-25 -145 3 -228 104 -305 27 -21 50 -39 50 -41 0 -1 -26 7 -57 19 -84 30 -133
67 -160 117 -22 42 -23 55 -21 190 1 117 -1 153 -15 184 -15 35 -15 37 2 37
11 0 41 -15 67 -34z m737 -3 c-13 -30 -16 -68 -15 -182 2 -129 0 -149 -19
-188 -26 -54 -66 -85 -152 -118 -37 -13 -67 -23 -67 -22 0 2 20 18 45 36 59
42 103 108 116 173 8 43 6 74 -10 158 -10 58 -17 108 -15 111 9 16 99 69 115
69 17 0 17 -2 2 -37z m-483 -574 c19 -12 45 -30 57 -41 l22 -21 38 30 c73 58
77 58 133 14 27 -21 70 -47 95 -56 25 -10 45 -19 45 -21 0 -2 -5 -15 -12 -29
l-11 -25 -287 0 -287 0 -12 26 c-6 15 -10 27 -9 28 2 1 32 16 68 34 36 17 76
43 90 57 28 30 26 30 70 4z"/>
</g>
</svg>
